<svg width="92" height="54" viewBox="0 0 92 54" fill="none" xmlns="http://www.w3.org/2000/svg">
<path d="M12.9336 35.4186C12.6948 35.4187 12.4593 35.3621 12.2466 35.2536L0.813612 29.3646C0.461115 29.1832 0.194766 28.8696 0.0727799 28.4924C-0.0492066 28.1152 -0.0169094 27.7051 0.162612 27.3516L13.5936 0.822594C13.6828 0.646441 13.8058 0.489623 13.9557 0.361133C14.1056 0.232643 14.2794 0.135009 14.4671 0.0738304C14.6549 0.0126523 14.8528 -0.010866 15.0496 0.0046237C15.2464 0.0201134 15.4383 0.0743056 15.6141 0.164094L26.4906 5.7141C26.8398 5.89179 27.1056 6.19906 27.2312 6.57019C27.3568 6.94133 27.3322 7.34687 27.1626 7.70009L14.2866 34.5621C14.1996 34.7427 14.0774 34.9042 13.9273 35.0371C13.7771 35.17 13.602 35.2717 13.4121 35.3361C13.258 35.3887 13.0965 35.4165 12.9336 35.4186ZM3.51211 27.3786L12.2481 31.8786L23.8251 7.7286L15.5901 3.52859L3.51211 27.3786Z" fill="white"/>
<path d="M28.4736 14.5447C28.2155 14.5446 27.9619 14.4779 27.7371 14.3512L23.3781 11.8957C23.2064 11.799 23.0555 11.6696 22.9338 11.5146C22.8122 11.3596 22.7223 11.1822 22.6692 10.9925C22.6162 10.8028 22.601 10.6045 22.6245 10.4089C22.6481 10.2133 22.71 10.0243 22.8066 9.85266C22.9032 9.68099 23.0327 9.53003 23.1877 9.4084C23.3426 9.28677 23.52 9.19686 23.7097 9.14379C23.8994 9.09072 24.0978 9.07554 24.2933 9.09911C24.4889 9.12268 24.6779 9.18454 24.8496 9.28116L28.4496 11.3077C29.8551 10.4557 32.8971 8.62116 34.8441 7.52166C38.0226 5.72166 40.2606 5.96916 42.8301 8.40366C43.1114 8.67892 43.2733 9.05371 43.2808 9.44721C43.2882 9.84071 43.1408 10.2214 42.8702 10.5072C42.5996 10.7929 42.2275 10.9609 41.8341 10.9748C41.4408 10.9888 41.0578 10.8476 40.7676 10.5817C39.1716 9.06966 38.3406 8.99166 36.3201 10.1317C33.8181 11.5462 29.3046 14.2972 29.2581 14.3317C29.0212 14.4735 28.7497 14.5472 28.4736 14.5447Z" fill="white"/>
<path d="M67.9341 40.6432C66.8411 40.6712 65.7628 40.3866 64.8261 39.8227C63.4461 38.9017 57.3741 32.9467 56.1711 31.7632C55.9058 31.4809 55.7601 31.1069 55.7644 30.7196C55.7686 30.3323 55.9226 29.9617 56.1939 29.6853C56.4653 29.4089 56.833 29.2482 57.2202 29.2368C57.6074 29.2254 57.9839 29.3642 58.2711 29.6242C60.9711 32.2897 65.6031 36.7372 66.4866 37.3267C67.056 37.5898 67.6858 37.6947 68.3098 37.6303C68.9338 37.5659 69.5289 37.3346 70.0326 36.9607C70.2684 36.7561 70.4565 36.5023 70.5835 36.2171C70.7106 35.9319 70.7734 35.6223 70.7677 35.3102C70.762 34.998 70.6878 34.6909 70.5504 34.4106C70.413 34.1302 70.2158 33.8835 69.9726 33.6877C68.4396 31.9627 62.0706 25.8352 60.6726 24.4912C55.7944 22.7031 51.064 20.5355 46.5246 18.0082L44.9466 19.0402C44.5923 20.6848 43.6471 22.1423 42.2901 23.1367C41.8137 23.5119 41.2608 23.7779 40.6703 23.9158C40.0799 24.0537 39.4663 24.0601 38.8731 23.9347C38.1532 23.845 37.46 23.606 36.8377 23.233C36.2155 22.86 35.678 22.3613 35.2596 21.7687C34.4619 20.0644 34.3723 18.1134 35.0106 16.3432C36.2901 11.2222 38.3661 9.90368 41.2386 8.07968L41.8701 7.67618C45.0351 5.64368 47.7516 4.56068 50.7336 5.90318C52.5876 6.73868 59.1681 9.28719 61.0371 10.0102L67.3011 7.95668C67.6763 7.84257 68.0813 7.87997 68.4293 8.06086C68.7773 8.24175 69.0406 8.55175 69.1628 8.92443C69.285 9.29712 69.2564 9.70284 69.0831 10.0547C68.9097 10.4065 68.6055 10.6764 68.2356 10.8067L61.4631 13.0267C61.1351 13.1337 60.7805 13.1252 60.4581 13.0027C60.1026 12.8647 51.7356 9.64569 49.5081 8.64069C48.1716 8.04068 46.7601 8.10218 43.4961 10.1992L42.8511 10.6117C40.2306 12.2752 38.9151 13.1122 37.9251 17.0707C37.4181 19.0987 37.6521 19.9207 37.8366 20.2207C38.0736 20.6167 38.6226 20.7772 39.4971 20.9962C39.6848 21.0278 39.8772 21.0173 40.0603 20.9654C40.2435 20.9135 40.4128 20.8216 40.5561 20.6962C40.9791 20.3774 41.3325 19.9754 41.5943 19.515C41.8562 19.0545 42.021 18.5453 42.0786 18.0187C42.0981 17.7925 42.1688 17.5738 42.2852 17.3789C42.4016 17.184 42.5607 17.0181 42.7506 16.8937L45.6381 15.0052C45.8656 14.8572 46.1291 14.7737 46.4004 14.7636C46.6717 14.7536 46.9407 14.8174 47.1786 14.9482C47.2806 15.0037 57.3936 20.5342 61.8231 21.6982C62.0693 21.7639 62.2952 21.8903 62.4801 22.0657C62.8041 22.3762 70.4301 29.6782 72.2211 31.6987C72.7173 32.1791 73.1108 32.7552 73.3778 33.3923C73.6447 34.0293 73.7794 34.7139 73.7738 35.4045C73.7682 36.0952 73.6223 36.7775 73.3451 37.4101C73.0679 38.0427 72.6651 38.6124 72.1611 39.0847C71.0069 40.1317 69.4917 40.6904 67.9341 40.6432Z" fill="white"/>
<path d="M71.099 34.1917C70.7553 34.1914 70.4221 34.0732 70.1552 33.8566C69.8882 33.6401 69.7037 33.3385 69.6326 33.0022C69.5614 32.6659 69.6079 32.3154 69.7643 32.0093C69.9206 31.7033 70.1774 31.4601 70.4915 31.3207L75.7535 28.9897C75.9344 28.9043 76.1305 28.8559 76.3304 28.8474C76.5302 28.8389 76.7297 28.8705 76.9172 28.9403C77.1046 29.01 77.2763 29.1166 77.4219 29.2536C77.5676 29.3907 77.6844 29.5555 77.7654 29.7384C77.8465 29.9213 77.8901 30.1185 77.8938 30.3185C77.8975 30.5185 77.8611 30.7172 77.7868 30.9029C77.7126 31.0886 77.6019 31.2576 77.4614 31.4C77.3209 31.5423 77.1533 31.6551 76.9685 31.7317L71.705 34.0687C71.5138 34.1513 71.3074 34.1932 71.099 34.1917Z" fill="white"/>
<path d="M77.9796 35.4186C77.6806 35.4185 77.3885 35.329 77.1407 35.1617C76.893 34.9944 76.7009 34.7569 76.5891 34.4796L65.2671 6.39064C65.1914 6.20331 65.1543 6.00263 65.1581 5.80064C65.1619 5.59864 65.2065 5.39949 65.2891 5.21514C65.3718 5.03079 65.4908 4.86503 65.6391 4.72782C65.7874 4.5906 65.9619 4.48476 66.1521 4.41664L78.2511 0.087636C78.6171 -0.0432871 79.0196 -0.0270058 79.3739 0.133049C79.7281 0.293104 80.0064 0.58443 80.1501 0.945635L91.2501 28.8066C91.3227 28.9908 91.3581 29.1876 91.3543 29.3855C91.3505 29.5835 91.3076 29.7787 91.228 29.96C91.1483 30.1413 91.0336 30.305 90.8904 30.4418C90.7472 30.5785 90.5783 30.6855 90.3936 30.7566L78.5166 35.3136C78.3455 35.3813 78.1635 35.4169 77.9796 35.4186ZM68.6286 6.71464L78.8151 31.9851L87.8961 28.5051L77.8986 3.39963L68.6286 6.71464ZM61.1766 45.1926C59.94 45.2297 58.7325 44.8142 57.7806 44.0241C55.7721 42.2391 50.6091 37.0791 50.3901 36.8601C50.1168 36.5772 49.9656 36.1983 49.9691 35.805C49.9725 35.4117 50.1302 35.0355 50.4083 34.7574C50.6865 34.4793 51.0627 34.3215 51.456 34.3181C51.8493 34.3147 52.2282 34.4659 52.5111 34.7391C52.5636 34.7916 57.8316 40.0566 59.7726 41.7891C60.1749 42.0342 60.6304 42.1786 61.1005 42.2099C61.5706 42.2413 62.0413 42.1587 62.4726 41.9691C63.1769 41.7289 63.8018 41.2998 64.2789 40.7287C64.7561 40.1576 65.0673 39.4665 65.1786 38.7306C65.212 38.5365 65.2834 38.3509 65.3887 38.1843C65.4939 38.0178 65.6309 37.8736 65.7918 37.76C65.9528 37.6465 66.1345 37.5657 66.3267 37.5223C66.5189 37.479 66.7177 37.4739 66.9118 37.5074C67.1059 37.5409 67.2916 37.6123 67.4581 37.7175C67.6246 37.8227 67.7688 37.9597 67.8824 38.1207C67.996 38.2816 68.0768 38.4634 68.1201 38.6555C68.1635 38.8477 68.1686 39.0465 68.1351 39.2406C67.9311 40.5008 67.3898 41.6822 66.5684 42.6593C65.747 43.6365 64.6764 44.373 63.4701 44.7906C62.7335 45.0521 61.9582 45.188 61.1766 45.1926Z" fill="white"/>
<path d="M54.1956 48.8286C52.9616 48.8812 51.7558 48.4508 50.8341 47.6286L45.5061 42.3006L47.6286 40.1781L52.9566 45.5061C53.2863 45.6912 53.6512 45.8051 54.0277 45.8402C54.4042 45.8754 54.7838 45.831 55.1421 45.7101C55.8302 45.5412 56.4602 45.1904 56.9664 44.6946C57.4725 44.1988 57.8361 43.5761 58.0191 42.8916C58.0746 42.7007 58.1675 42.5227 58.2923 42.3679C58.4172 42.2132 58.5716 42.0849 58.7466 41.9904C58.9215 41.8958 59.1135 41.8371 59.3113 41.8174C59.5092 41.7978 59.709 41.8177 59.8991 41.8759C60.0892 41.9342 60.2658 42.0297 60.4187 42.1568C60.5716 42.2839 60.6976 42.4402 60.7896 42.6165C60.8815 42.7928 60.9375 42.9856 60.9542 43.1838C60.971 43.3819 60.9481 43.5814 60.8871 43.7706C60.4698 45.2243 59.592 46.5032 58.3856 47.4153C57.1793 48.3274 55.708 48.8233 54.1956 48.8286Z" fill="white"/>
<path d="M47.7488 53.5828C46.5226 53.6089 45.3234 53.2205 44.3453 52.4803C42.9941 51.3985 41.6365 50.3244 40.2728 49.2583C40.1143 49.1382 39.9813 48.9878 39.8815 48.8159C39.7817 48.6439 39.717 48.4538 39.6913 48.2567C39.6656 48.0595 39.6793 47.8592 39.7318 47.6674C39.7842 47.4756 39.8742 47.2961 39.9966 47.1394C40.119 46.9827 40.2713 46.8519 40.4447 46.7546C40.6181 46.6573 40.8091 46.5955 41.0067 46.5727C41.2042 46.5498 41.4043 46.5665 41.5953 46.6218C41.7863 46.677 41.9644 46.7696 42.1193 46.8943C42.1193 46.8943 43.9928 48.3568 46.2203 50.1388C46.6949 50.4213 47.2347 50.5757 47.7868 50.587C48.339 50.5983 48.8846 50.4661 49.3703 50.2033C49.8046 50.0166 50.1721 49.7026 50.4243 49.3028C50.6766 48.903 50.8018 48.4362 50.7833 47.9638C50.7712 47.5662 50.9175 47.18 51.1901 46.8903C51.4627 46.6006 51.8392 46.431 52.2368 46.4188C52.6333 46.4118 53.0168 46.5601 53.3054 46.8319C53.5941 47.1037 53.7651 47.4777 53.7818 47.8738C53.8172 48.9187 53.5449 49.9509 52.9988 50.8423C52.4527 51.7338 51.6567 52.4452 50.7098 52.8883C49.7892 53.344 48.776 53.5817 47.7488 53.5828Z" fill="white"/>
<path d="M37.2365 52.1406C36.749 52.1388 36.2665 52.042 35.816 51.8556C34.5929 51.2554 33.5846 50.2927 32.9285 49.0986C31.864 49.3051 30.7608 49.1394 29.804 48.6291C29.0014 48.103 28.3114 47.4226 27.7743 46.6273C27.2371 45.8321 26.8634 44.938 26.675 43.9971C26.5959 43.614 26.6697 43.2151 26.8805 42.8856C28.1 40.9836 29.939 38.0271 30.2135 37.4106C30.4605 36.9187 30.8109 36.4861 31.2406 36.1423C31.6704 35.7984 32.1694 35.5516 32.7035 35.4186C33.43 35.2282 34.1898 35.2027 34.9274 35.3438C35.665 35.485 36.3617 35.7894 36.9665 36.2346C37.6367 36.6782 38.175 37.2944 38.5245 38.0183C38.874 38.7421 39.0218 39.5468 38.9525 40.3476C39.666 40.3783 40.3646 40.5617 41.0011 40.8854C41.6377 41.2091 42.1974 41.6656 42.6425 42.2241C43.0748 42.8997 43.3508 43.6634 43.4502 44.4593C43.5496 45.2553 43.4699 46.0634 43.217 46.8246C42.4302 49.0205 40.8149 50.821 38.717 51.8406C38.2485 52.0386 37.7451 52.1406 37.2365 52.1406ZM35.4545 47.4591C35.9255 48.2556 36.767 49.3986 37.5545 49.0701C38.862 48.3891 39.8685 47.2451 40.3775 45.8616C40.4777 45.5554 40.516 45.2324 40.4902 44.9113C40.4645 44.5902 40.3752 44.2774 40.2275 43.9911C39.9993 43.7676 39.7284 43.5924 39.431 43.4759C39.1336 43.3594 38.8158 43.304 38.4965 43.3131L35.4545 47.4591ZM29.768 43.9341C30.0067 44.7675 30.5239 45.4939 31.2335 45.9921C31.455 46.1057 31.6975 46.1728 31.946 46.189C32.1944 46.2053 32.4436 46.1704 32.678 46.0866L35.8805 40.5966C36.0078 40.2573 36.016 39.8848 35.9037 39.5403C35.7914 39.1958 35.5653 38.8997 35.2625 38.7006C35.0322 38.519 34.7663 38.3877 34.4821 38.3151C34.198 38.2425 33.9017 38.2302 33.6125 38.2791C33.3572 38.3212 33.1241 38.4499 32.9525 38.6436C32.5565 39.5211 30.6515 42.5451 29.768 43.9341Z" fill="white"/>
<path d="M25.7721 46.2771C25.4167 46.2781 25.063 46.2276 24.7221 46.1271C22.1526 45.3546 21.1461 42.0276 21.0396 41.6511C20.9858 41.4601 20.9704 41.2604 20.9944 41.0634C21.0183 40.8664 21.0811 40.6762 21.1791 40.5036C22.454 38.2889 23.8642 36.1549 25.4016 34.1136C26.1734 33.1096 27.2917 32.4292 28.5381 32.2054C29.7846 31.9816 31.0697 32.2303 32.1426 32.9031C33.5586 33.8856 34.5966 36.0231 32.8596 38.8161C32.7557 38.9836 32.6198 39.1289 32.4597 39.2438C32.2997 39.3588 32.1185 39.441 31.9267 39.4859C31.7348 39.5309 31.5359 39.5376 31.3415 39.5056C31.147 39.4737 30.9608 39.4038 30.7933 39.2999C30.6259 39.196 30.4806 39.0601 30.3656 38.9C30.2507 38.74 30.1684 38.5588 30.1235 38.3669C30.0786 38.1751 30.0719 37.9762 30.1038 37.7818C30.1358 37.5873 30.2057 37.4011 30.3096 37.2336C30.6951 36.6111 31.0296 35.7846 30.4311 35.3691C29.9937 35.1302 29.4849 35.0566 28.9977 35.1618C28.5105 35.267 28.0774 35.544 27.7776 35.9421C26.4599 37.6931 25.2405 39.5159 24.1251 41.4021C24.4536 42.1866 25.0131 43.0851 25.5846 43.2546C26.0901 43.4046 26.7846 42.8856 27.1611 42.5646C27.4622 42.3045 27.8544 42.1746 28.2513 42.2035C28.6483 42.2325 29.0174 42.418 29.2776 42.7191C29.5378 43.0203 29.6677 43.4125 29.6387 43.8094C29.6097 44.2063 29.4242 44.5755 29.1231 44.8356C28.2212 45.7116 27.0283 46.2248 25.7721 46.2771Z" fill="white"/>
<path d="M22.4797 42.7386C22.3148 42.7384 22.1511 42.711 21.9952 42.6576C21.7417 42.5721 15.7627 40.4826 15.7627 35.7996C15.7625 35.6423 15.7868 35.4859 15.8347 35.3361C16.3774 33.8424 17.1207 32.4295 18.0442 31.1361C18.7314 30.3149 19.6806 29.7556 20.7319 29.5523C21.7832 29.3491 22.8724 29.5143 23.8162 30.0201C24.7046 30.4138 25.4132 31.1263 25.8019 32.0169C26.1907 32.9074 26.2315 33.9114 25.9162 34.8306C24.9352 37.9896 23.9287 41.6001 23.9182 41.6376C23.8301 41.953 23.6412 42.2309 23.3804 42.4289C23.1196 42.6269 22.8012 42.7341 22.4737 42.7341L22.4797 42.7386ZM18.7747 36.0321C18.9247 37.4361 20.3617 38.5041 21.5137 39.1446C21.9052 37.7766 22.4857 35.7861 23.0557 33.9456C23.108 33.8287 23.1348 33.7019 23.1342 33.5739C23.1336 33.4458 23.1057 33.3193 23.0523 33.2029C22.9989 33.0864 22.9213 32.9827 22.8246 32.8987C22.7279 32.8147 22.6144 32.7523 22.4917 32.7156C22.1818 32.5408 21.827 32.4617 21.4722 32.4884C21.1174 32.5151 20.7785 32.6464 20.4982 32.8656C19.8027 33.8506 19.2244 34.9133 18.7747 36.0321Z" fill="white"/>
<path d="M18.4941 34.7121C18.1921 34.7118 17.8972 34.6203 17.6481 34.4496L13.7136 31.7496C13.3852 31.5249 13.1595 31.1788 13.0862 30.7877C13.0129 30.3965 13.098 29.9923 13.3228 29.6639C13.5476 29.3355 13.8936 29.1098 14.2848 29.0365C14.6759 28.9632 15.0802 29.0484 15.4086 29.2731L19.3431 31.9731C19.6081 32.154 19.8081 32.415 19.9138 32.718C20.0195 33.0209 20.0253 33.3498 19.9303 33.6562C19.8353 33.9627 19.6446 34.2306 19.3861 34.4207C19.1275 34.6107 18.8149 34.7129 18.4941 34.7121Z" fill="white"/>
</svg>
