<svg width="73" height="70" viewBox="0 0 73 70" fill="none" xmlns="http://www.w3.org/2000/svg">
<path d="M70.5159 31.875C70.0079 31.8714 69.5136 31.695 69.1021 31.3703L36.3909 5.92344L3.67963 31.3703C3.15484 31.709 2.53259 31.821 1.93573 31.6842C1.33888 31.5474 0.810775 31.1717 0.455686 30.6313C0.100597 30.0909 -0.0556755 29.425 0.0177188 28.7652C0.0911132 28.1054 0.38884 27.4995 0.852126 27.0672L34.9771 0.504688C35.3899 0.184386 35.8841 0.0122626 36.3909 0.0122626C36.8976 0.0122626 37.3918 0.184386 37.8046 0.504688L71.9296 27.0672C72.3458 27.3955 72.6561 27.8587 72.8163 28.3907C72.9765 28.9227 72.9783 29.4962 72.8215 30.0294C72.6647 30.5625 72.3574 31.0281 71.9433 31.3596C71.5292 31.691 71.0296 31.8714 70.5159 31.875ZM9.57838 15.9375C8.93191 15.9375 8.31192 15.6576 7.8548 15.1595C7.39768 14.6614 7.14088 13.9857 7.14088 13.2812V2.65625C7.14088 1.95177 7.39768 1.27614 7.8548 0.777997C8.31192 0.279854 8.93191 0 9.57838 0H19.3284C19.9748 0 20.5948 0.279854 21.0519 0.777997C21.5091 1.27614 21.7659 1.95177 21.7659 2.65625C21.7659 3.36073 21.5091 4.03636 21.0519 4.5345C20.5948 5.03264 19.9748 5.3125 19.3284 5.3125H12.0159V13.2812C12.0159 13.9857 11.7591 14.6614 11.3019 15.1595C10.8448 15.6576 10.2248 15.9375 9.57838 15.9375Z" fill="white"/>
<path d="M58.3281 69.0625H46.1406C45.4942 69.0625 44.8742 68.7826 44.417 68.2845C43.9599 67.7864 43.7031 67.1107 43.7031 66.4062V47.8125H29.0781V66.4062C29.0781 67.1107 28.8213 67.7864 28.3642 68.2845C27.9071 68.7826 27.2871 69.0625 26.6406 69.0625H14.4531C12.5137 69.0625 10.6538 68.2229 9.28241 66.7285C7.91105 65.2341 7.14063 63.2072 7.14062 61.0938V34.5312C7.14062 33.8268 7.39743 33.1511 7.85455 32.653C8.31167 32.1549 8.93166 31.875 9.57812 31.875C10.2246 31.875 10.8446 32.1549 11.3017 32.653C11.7588 33.1511 12.0156 33.8268 12.0156 34.5312V61.0938C12.0156 61.7982 12.2724 62.4739 12.7296 62.972C13.1867 63.4701 13.8067 63.75 14.4531 63.75H24.2031V45.1562C24.2031 44.4518 24.4599 43.7761 24.9171 43.278C25.3742 42.7799 25.9942 42.5 26.6406 42.5H46.1406C46.7871 42.5 47.4071 42.7799 47.8642 43.278C48.3213 43.7761 48.5781 44.4518 48.5781 45.1562V63.75H58.3281C58.9746 63.75 59.5946 63.4701 60.0517 62.972C60.5088 62.4739 60.7656 61.7982 60.7656 61.0938V34.5312C60.7656 33.8268 61.0224 33.1511 61.4795 32.653C61.9367 32.1549 62.5567 31.875 63.2031 31.875C63.8496 31.875 64.4696 32.1549 64.9267 32.653C65.3838 33.1511 65.6406 33.8268 65.6406 34.5312V61.0938C65.6406 63.2072 64.8702 65.2341 63.4988 66.7285C62.1275 68.2229 60.2675 69.0625 58.3281 69.0625Z" fill="white"/>
</svg>
