<svg width="75" height="73" viewBox="0 0 75 73" fill="none" xmlns="http://www.w3.org/2000/svg">
<path d="M24.895 43.0648C24.6699 42.7936 24.4448 42.5149 24.2272 42.2362C23.0126 43.9841 21.1703 45.1911 19.0876 45.6033C18.3373 45.7163 1.01291 48.5562 0.120048 62.0474V62.1378C0.120048 62.1679 0.120048 62.891 0 71.3955C0 71.7951 0.158098 72.1783 0.439515 72.4608C0.720932 72.7433 1.10262 72.9021 1.5006 72.9021C1.89858 72.9021 2.28027 72.7433 2.56168 72.4608C2.8431 72.1783 3.0012 71.7951 3.0012 71.3955C3.10624 63.8628 3.12125 62.4165 3.12125 62.1604C3.87155 51.1173 19.3953 48.5562 19.5753 48.5336C22.2174 48.0559 24.5933 46.622 26.253 44.5036C25.7737 44.05 25.3203 43.5697 24.895 43.0648ZM55.6573 45.6109C54.5508 45.38 53.5021 44.9275 52.5739 44.2803C51.6457 43.6332 50.857 42.8047 50.2551 41.8445C49.6074 42.636 48.916 43.3904 48.1843 44.1043C49.8652 46.4214 52.3686 48.0017 55.1771 48.5185C55.3346 48.5185 70.8733 51.0797 71.6086 62.183C71.6051 62.2482 71.6051 62.3136 71.6086 62.3788C71.6086 62.3788 71.9988 64.4804 71.9988 71.4934C71.9988 71.893 72.1569 72.2762 72.4383 72.5587C72.7197 72.8413 73.1014 73 73.4994 73C73.8974 73 74.2791 72.8413 74.5605 72.5587C74.8419 72.2762 75 71.893 75 71.4934C75 64.8571 74.6699 62.4541 74.5723 61.8967C73.6269 48.5487 56.37 45.7163 55.6573 45.6109ZM55.5147 27.811C56.8953 27.811 57.9007 27.3439 57.7656 26.0257L57.563 21.2123C57.4205 19.9091 57.5105 18.8244 56.4151 18.8244H55.4322C55.4322 18.8244 56.5726 10.6589 47.434 4.37654C47.434 4.37654 45.8583 0.414302 42.8646 0H32.1504C29.1492 0.406769 27.581 4.37654 27.581 4.37654C18.4349 10.6589 19.5753 18.8319 19.5753 18.8319H18.6525C17.512 18.8319 17.6095 19.9016 17.467 21.2198L17.2494 26.0182C17.1068 27.3364 18.1122 27.8034 19.5003 27.8034H20.8734C21.879 32.678 24.0381 37.2381 27.1684 41.0988C28.4049 42.5912 29.9484 43.7974 31.6928 44.6348C33.4373 45.4721 35.3415 45.9207 37.2749 45.9498C40.0464 45.9565 42.7289 44.9679 44.8379 43.1627C49.3397 39.3964 52.3935 33.5208 53.9691 27.811H55.5147ZM39.7584 3.0131L39.0081 6.77949H36.0594L35.3091 3.0131H39.7584ZM39.0081 16.5721C39.0081 16.87 38.9201 17.1613 38.7552 17.4091C38.5903 17.6568 38.356 17.8499 38.0818 17.9639C37.8076 18.078 37.5058 18.1078 37.2147 18.0497C36.9237 17.9916 36.6563 17.8481 36.4464 17.6374C36.2366 17.4267 36.0936 17.1582 36.0357 16.866C35.9778 16.5737 36.0076 16.2708 36.1211 15.9955C36.2347 15.7203 36.427 15.485 36.6738 15.3194C36.9206 15.1539 37.2107 15.0655 37.5075 15.0655C37.9055 15.0655 38.2872 15.2242 38.5686 15.5068C38.85 15.7893 39.0081 16.1725 39.0081 16.5721ZM42.9022 40.8577C41.3339 42.2032 39.3378 42.9407 37.2749 42.9367C35.778 42.9137 34.3039 42.5651 32.9542 41.9148C31.6045 41.2646 30.4113 40.3283 29.4568 39.1704C26.9997 36.1443 25.2096 32.6296 24.2047 28.858L27.0033 30.1311H48.0117L50.4727 28.9861C48.762 33.8974 46.0984 38.1534 42.9022 40.8577ZM52.3484 24.7979L47.3439 27.1179H27.6711L22.6741 24.7979H20.3181L20.4457 21.845H23.0267L22.5465 18.4101C22.5465 18.3498 21.7512 12.0374 29.2992 6.86235L30.0495 6.34258L30.3872 5.49138C30.7614 4.52156 31.411 3.68339 32.2554 3.0809C32.2487 3.20636 32.2487 3.33208 32.2554 3.45754L33.1408 7.73615C33.2391 8.3077 33.5339 8.82653 33.974 9.20229C34.4141 9.57806 34.9715 9.78695 35.5492 9.79259H36.0069V12.3161C35.0057 12.6715 34.1618 13.3708 33.6245 14.2904C33.0872 15.21 32.891 16.2907 33.0705 17.3415C33.2501 18.3923 33.7939 19.3456 34.6059 20.0328C35.4178 20.72 36.4455 21.0969 37.5075 21.0969C38.5695 21.0969 39.5972 20.72 40.4091 20.0328C41.2211 19.3456 41.7649 18.3923 41.9445 17.3415C42.124 16.2907 41.9278 15.21 41.3905 14.2904C40.8532 13.3708 40.0093 12.6715 39.0081 12.3161V9.79259H39.4733C40.0406 9.77314 40.5838 9.55801 41.0116 9.18344C41.4393 8.80887 41.7254 8.29774 41.8217 7.73615L42.7071 3.45754C42.714 3.33209 42.714 3.20635 42.7071 3.0809C43.5686 3.67315 44.2347 4.50974 44.6203 5.48385L45.0105 6.34258L45.7608 6.86235C53.1363 11.9319 52.5135 18.1615 52.5135 18.4101L51.8983 21.845H54.5768L54.7044 24.8054L52.3484 24.7979Z" fill="white"/>
</svg>
