<svg width="26" height="34" viewBox="0 0 26 34" fill="none" xmlns="http://www.w3.org/2000/svg">
<path d="M12.262 32.745C10.5167 30.2149 9.03527 28.1046 7.77765 26.3131C5.53533 23.1189 4.00457 20.9383 2.95854 19.199C2.15476 17.8625 1.67494 16.8449 1.38944 15.8809C1.10622 14.9245 1 13.9727 1 12.75C1 6.26063 6.26063 1 12.75 1C19.2394 1 24.5 6.26063 24.5 12.75C24.5 13.9727 24.3938 14.9245 24.1106 15.8809C23.8251 16.8449 23.3452 17.8625 22.5415 19.199C21.4954 20.9383 19.9647 23.1189 17.7223 26.3131C16.4647 28.1046 14.9832 30.215 13.2378 32.7452C13.0023 33.085 12.4975 33.0849 12.262 32.745ZM12.75 19.0625C16.2363 19.0625 19.0625 16.2363 19.0625 12.75C19.0625 9.26369 16.2363 6.4375 12.75 6.4375C9.26369 6.4375 6.4375 9.26369 6.4375 12.75C6.4375 16.2363 9.26369 19.0625 12.75 19.0625Z" stroke="white" stroke-width="2"/>
</svg>
