<svg width="33" height="28" viewBox="0 0 33 28" fill="none" xmlns="http://www.w3.org/2000/svg">
<path d="M25.7628 10.6776L25.7629 10.6776L25.7693 10.6724C26.7129 9.9057 26.8635 8.50551 26.1043 7.5564C25.3441 6.56862 23.9251 6.43872 22.9845 7.19955L17.9009 11.2599L17.8991 11.2614C17.4909 11.589 16.8915 11.7847 16.2419 11.7847C15.5922 11.7847 14.9929 11.589 14.5847 11.2614L14.5828 11.2599L9.49938 7.19963C8.52943 6.41493 7.14223 6.61751 6.39014 7.54316L6.38074 7.55473L6.37169 7.56657C6.0187 8.02849 5.85809 8.60906 5.92348 9.18673C5.98888 9.7644 6.27521 10.2944 6.72253 10.6657L6.72979 10.6717L6.73716 10.6776L11.8197 14.7371C13.0793 15.7624 14.6916 16.2425 16.25 16.2425C17.8141 16.2425 19.4068 15.7593 20.6774 14.7395C20.6778 14.7391 20.6782 14.7388 20.6786 14.7385L25.7628 10.6776ZM8.125 1H24.375C26.6592 1 28.4099 1.5712 29.5852 2.66248C30.747 3.74131 31.5 5.47185 31.5 8.125V19.5C31.5 22.1532 30.747 23.8837 29.5852 24.9625C28.4099 26.0538 26.6592 26.625 24.375 26.625H8.125C5.84079 26.625 4.09006 26.0538 2.91483 24.9625C1.75301 23.8837 1 22.1532 1 19.5V8.125C1 5.47185 1.75301 3.74131 2.91483 2.66248C4.09006 1.5712 5.84079 1 8.125 1Z" stroke="white" stroke-width="2"/>
</svg>
