<svg width="30" height="30" viewBox="0 0 30 30" fill="none" xmlns="http://www.w3.org/2000/svg">
<path d="M7.35004 0.833292C5.62171 0.833292 3.96417 1.51987 2.74206 2.74198C1.51995 3.96409 0.833374 5.62163 0.833374 7.34996L7.35004 0.833292ZM7.35004 0.833292C7.71602 0.830504 8.08139 0.863719 8.44087 0.932458L7.35004 0.833292ZM22.6589 28.1667V28.1666L22.6513 28.1666C17.1323 28.1595 11.8413 25.9639 7.93871 22.0613C4.03629 18.1589 1.8407 12.8682 1.83337 7.34932C1.83354 5.88644 2.41474 4.48351 3.44917 3.44909C4.48374 2.41451 5.88693 1.83329 7.35004 1.83329V1.83332L7.35766 1.83326C7.65807 1.83097 7.95798 1.85824 8.25306 1.91466L8.2737 1.91861L8.29449 1.92169C8.57729 1.96353 8.8553 2.03304 9.12452 2.12919L9.12451 2.12921L9.12979 2.13106C9.19823 2.15507 9.25921 2.19653 9.30672 2.25134C9.35421 2.30615 9.38659 2.37241 9.40063 2.44356L9.4035 2.45811L9.4068 2.47256L11.3473 10.9711C11.3473 10.9712 11.3473 10.9713 11.3474 10.9714C11.3627 11.0392 11.3608 11.1097 11.3419 11.1765C11.323 11.2435 11.2876 11.3047 11.239 11.3544L11.2301 11.3635L11.2214 11.3728C11.2051 11.3904 11.1957 11.4003 11.1908 11.4054C11.1798 11.4132 11.1461 11.4361 11.0666 11.4821C10.8473 11.6093 10.4346 11.826 9.55179 12.2854L8.70973 12.7235L9.10345 13.5872C10.5983 16.8665 13.2209 19.4999 16.494 21.0082L17.3571 21.4058L17.7982 20.5642C18.2646 19.6745 18.485 19.2578 18.6141 19.0363C18.6622 18.9537 18.6856 18.9195 18.6934 18.9087C18.6984 18.9039 18.7083 18.8945 18.7263 18.8778L18.7356 18.8691L18.7447 18.8602C18.7945 18.8116 18.8557 18.7762 18.9226 18.7573C18.9895 18.7384 19.06 18.7365 19.1277 18.7518C19.1278 18.7518 19.128 18.7518 19.1281 18.7519L27.6232 20.6916C27.6236 20.6917 27.624 20.6918 27.6244 20.6919C27.6928 20.708 27.7561 20.7411 27.8082 20.7882L28.4783 20.0459L27.8082 20.7882C27.8607 20.8356 27.9003 20.8955 27.9232 20.9624L27.9231 20.9624L27.927 20.9733C28.0266 21.2535 28.1018 21.5418 28.1517 21.835C28.1994 22.1346 28.2234 22.4375 28.2234 22.7409C28.1995 24.1952 27.6022 25.5814 26.5613 26.5976C25.5187 27.6154 24.1158 28.1795 22.6589 28.1667Z" stroke="white" stroke-width="2"/>
</svg>
