<svg width="34" height="35" viewBox="0 0 34 35" fill="none" xmlns="http://www.w3.org/2000/svg">
<path fill-rule="evenodd" clip-rule="evenodd" d="M9.99127 1.02964C11.8046 0.946528 12.3826 0.927643 17 0.927643C21.6183 0.927643 22.1954 0.947471 24.0077 1.02964C25.8182 1.11181 27.0546 1.39987 28.1359 1.82014C29.2701 2.24717 30.2976 2.91624 31.1468 3.78081C32.0115 4.62993 32.6806 5.65744 33.1075 6.7917C33.5277 7.87309 33.8149 9.10937 33.898 10.9189C33.9811 12.7323 34 13.3103 34 17.9276C34 22.545 33.9802 23.123 33.898 24.9364C33.8158 26.7459 33.5277 27.9822 33.1075 29.0636C32.6731 30.1809 32.0912 31.13 31.1468 32.0744C30.2977 32.9391 29.2701 33.6083 28.1359 34.0351C27.0546 34.4554 25.8182 34.7425 24.0088 34.8256C22.1954 34.9088 21.6174 34.9276 17 34.9276C12.3826 34.9276 11.8046 34.9079 9.99127 34.8256C8.18173 34.7434 6.94544 34.4554 5.86406 34.0351C4.74677 33.6007 3.79761 33.0188 2.85317 32.0744C1.98844 31.2253 1.31932 30.1978 0.8925 29.0636C0.472229 27.9822 0.185115 26.7459 0.102 24.9364C0.0188854 23.123 0 22.5459 0 17.9276C0 13.3093 0.0198282 12.7323 0.102 10.9199C0.184172 9.10937 0.472229 7.87309 0.8925 6.7917C1.31952 5.65752 1.9886 4.63006 2.85317 3.78081C3.70228 2.91609 4.72979 2.24697 5.86406 1.82014C6.94544 1.39987 8.18173 1.11276 9.99127 1.02964ZM23.8699 4.08964C22.0773 4.00841 21.539 3.99047 17 3.99047C12.461 3.99047 11.9227 4.00841 10.1301 4.08964C8.47261 4.1652 7.57256 4.44191 6.97377 4.6752C6.18044 4.98309 5.61377 5.35141 5.01877 5.94641C4.42473 6.54141 4.05544 7.10809 3.74756 7.90141C3.51427 8.5002 3.23756 9.40026 3.162 11.0578C3.08077 12.8503 3.06283 13.3886 3.06283 17.9276C3.06283 22.4666 3.08077 23.0049 3.162 24.7975C3.23756 26.455 3.51427 27.3551 3.74756 27.9539C4.0199 28.6924 4.45429 29.3603 5.01877 29.9089C5.56725 30.4733 6.23531 30.9078 6.97377 31.1801C7.57256 31.4134 8.47261 31.6901 10.1301 31.7656C11.9227 31.8469 12.4601 31.8649 17 31.8649C21.5399 31.8649 22.0773 31.8469 23.8699 31.7656C25.5274 31.6901 26.4274 31.4134 27.0263 31.1801C27.8196 30.8722 28.3863 30.5039 28.9813 29.9089C29.5457 29.3605 29.9801 28.6924 30.2524 27.9539C30.4858 27.3551 30.7624 26.455 30.838 24.7975C30.9193 23.0049 30.9372 22.4666 30.9372 17.9276C30.9372 13.3886 30.9193 12.8503 30.838 11.0578C30.7624 9.40026 30.4858 8.5002 30.2524 7.90141C29.9446 7.10809 29.5763 6.54141 28.9813 5.94641C28.3863 5.35237 27.8196 4.98309 27.0263 4.6752C26.4274 4.44191 25.5274 4.1652 23.8699 4.08964ZM14.8294 23.1681C15.5176 23.4533 16.2551 23.5999 17 23.5999C18.5045 23.5999 19.9472 23.0023 21.0109 21.9386C22.0748 20.8748 22.6724 19.432 22.6724 17.9276C22.6724 16.4233 22.0748 14.9805 21.0109 13.9167C19.9472 12.8529 18.5045 12.2553 17 12.2553C16.2551 12.2553 15.5176 12.402 14.8294 12.6871C14.1411 12.9721 13.5158 13.39 12.9891 13.9167C12.4624 14.4434 12.0445 15.0687 11.7595 15.7569C11.4744 16.4451 11.3277 17.1827 11.3277 17.9276C11.3277 18.6726 11.4744 19.4102 11.7595 20.0984C12.0445 20.7866 12.4624 21.4119 12.9891 21.9386C13.5158 22.4653 14.1411 22.8831 14.8294 23.1681ZM10.8214 11.7489C12.46 10.1102 14.6826 9.18963 17 9.18963C19.3176 9.18963 21.5401 10.1102 23.1787 11.7489C24.8174 13.3876 25.738 15.6102 25.738 17.9276C25.738 20.2451 24.8174 22.4676 23.1787 24.1064C21.5401 25.745 19.3176 26.6656 17 26.6656C14.6826 26.6656 12.46 25.745 10.8214 24.1064C9.18266 22.4676 8.26205 20.2451 8.26205 17.9276C8.26205 15.6102 9.18266 13.3876 10.8214 11.7489ZM27.6755 10.4915C28.0628 10.1041 28.2804 9.57877 28.2804 9.03097C28.2804 8.48315 28.0628 7.95779 27.6755 7.57044C27.2881 7.18309 26.7628 6.96547 26.2149 6.96547C25.6672 6.96547 25.1418 7.18309 24.7545 7.57044C24.367 7.95779 24.1494 8.48315 24.1494 9.03097C24.1494 9.57877 24.367 10.1041 24.7545 10.4915C25.1418 10.8789 25.6672 11.0965 26.2149 11.0965C26.7628 11.0965 27.2881 10.8789 27.6755 10.4915Z" fill="#591214"/>
</svg>
