<svg id="telegram" width="34" height="35" viewBox="0 0 34 35" fill="none" xmlns="http://www.w3.org/2000/svg">
<path d="M17 0.927637C7.60832 0.927637 0 8.53706 0 17.9276C0 27.3182 7.60942 34.9276 17 34.9276C26.3917 34.9276 34 27.3182 34 17.9276C34 8.53706 26.3906 0.927637 17 0.927637ZM25.3497 12.5743L22.5595 25.7224C22.3534 26.6547 21.7984 26.8806 21.0241 26.4419L16.7741 23.3095L14.7242 25.2837C14.4983 25.5096 14.3063 25.7016 13.8676 25.7016L14.1692 21.3759L22.0452 14.26C22.3885 13.9584 21.9695 13.7873 21.5165 14.0889L11.7826 20.2166L7.58748 18.9071C6.67606 18.6197 6.65523 17.9956 7.77942 17.5569L24.1696 11.2362C24.9308 10.962 25.5954 11.4216 25.3486 12.5732L25.3497 12.5743Z" fill="currentColor"/>
</svg>
