<svg width="29" height="30" viewBox="0 0 29 30" fill="none" xmlns="http://www.w3.org/2000/svg">
<path d="M22.1544 28.6667L22.1507 28.6667C16.4992 28.6593 11.0813 26.4111 7.08516 22.4149C3.08905 18.4188 0.840785 13.001 0.833374 7.34967C0.833459 5.75407 1.46735 4.22383 2.59561 3.09557C3.72396 1.96722 5.25432 1.33332 6.85004 1.33334L6.85385 1.33331C7.18705 1.33077 7.51969 1.36101 7.84697 1.42359L7.85729 1.42557L7.86768 1.4271C8.18284 1.47374 8.49267 1.5512 8.7927 1.65836L8.79269 1.65837L8.79533 1.65929C8.94589 1.71212 9.08006 1.80333 9.18456 1.92391C9.28906 2.04449 9.36028 2.19025 9.39117 2.34679L9.3926 2.35407L9.39425 2.36129L11.3349 10.8606C11.335 10.8607 11.335 10.8609 11.335 10.861C11.3688 11.0102 11.3646 11.1654 11.3231 11.3125C11.2814 11.4599 11.2036 11.5944 11.0966 11.7039L11.0965 11.7038L11.0878 11.7131C11.0415 11.7629 11.0287 11.7758 11.0067 11.7933C10.9805 11.8142 10.9314 11.8486 10.8174 11.9147C10.5855 12.0491 10.1596 12.2726 9.28258 12.7289L8.86155 12.948L9.05841 13.3799C10.5035 16.5501 13.039 19.096 16.2033 20.5541L16.6348 20.7529L16.8554 20.3321C17.3188 19.4481 17.5459 19.0184 17.6821 18.7845C17.7492 18.6694 17.7842 18.6196 17.8055 18.5929C17.8233 18.5705 17.8364 18.5576 17.8861 18.5114L17.8862 18.5115L17.8953 18.5026C18.0048 18.3956 18.1393 18.3178 18.2866 18.2761C18.4338 18.2346 18.5889 18.2304 18.7381 18.2641C18.7383 18.2642 18.7385 18.2642 18.7386 18.2643L27.2362 20.2046C27.2365 20.2046 27.2368 20.2047 27.2371 20.2048C27.3883 20.24 27.5281 20.3131 27.6433 20.4171C27.7587 20.5213 27.8458 20.6532 27.8962 20.8004L27.8962 20.8004L27.8981 20.8058C28.0077 21.1141 28.0903 21.4312 28.145 21.7537C28.1974 22.0816 28.2236 22.4131 28.2234 22.7451C28.1984 24.3327 27.5468 25.8461 26.4105 26.9554C25.2735 28.0655 23.7435 28.6807 22.1544 28.6667Z" stroke="#591214"/>
</svg>
