<svg width="34" height="36" viewBox="0 0 34 36" fill="currentColor" xmlns="http://www.w3.org/2000/svg">
<path d="M30.1658 3.49141C29.2765 2.67216 25.6774 0.0603785 17.653 0.025368C17.653 0.025368 8.19319 -0.541802 3.5858 3.68747C1.02303 6.25024 0.119763 10.0104 0.0217333 14.6668C-0.0762962 19.3232 -0.195332 28.0478 8.2142 30.4145H8.2212L8.2142 34.0276C8.2142 34.0276 8.15818 35.491 9.12447 35.7851C10.2868 36.1492 10.973 35.0359 12.0864 33.8385C12.6955 33.1803 13.5358 32.214 14.173 31.4788C19.9287 31.962 24.347 30.8556 24.8512 30.6946C26.0135 30.3165 32.5885 29.4762 33.6528 20.7516C34.7592 11.7469 33.1207 6.06118 30.1658 3.49141ZM31.1391 20.0934C30.2358 27.3756 24.9072 27.8377 23.9269 28.1528C23.5068 28.2859 19.6206 29.2521 14.7402 28.9371C14.7402 28.9371 11.0991 33.3274 9.96472 34.4687C9.59361 34.8398 9.18749 34.8048 9.19449 34.0696C9.19449 33.5864 9.2225 28.0688 9.2225 28.0688C9.2155 28.0688 9.2155 28.0688 9.2225 28.0688C2.09436 26.0942 2.51448 18.665 2.59151 14.7788C2.66853 10.8926 3.40375 7.70668 5.5744 5.56403C9.47457 2.02797 17.506 2.55313 17.506 2.55313C24.291 2.58114 27.54 4.62575 28.2962 5.31196C30.796 7.4546 32.0704 12.5801 31.1391 20.0934ZM21.4062 14.4357C21.4342 15.0379 20.5309 15.0799 20.5029 14.4777C20.4259 12.9372 19.7046 12.188 18.2202 12.104C17.618 12.069 17.674 11.1657 18.2692 11.2007C20.2228 11.3058 21.3081 12.4261 21.4062 14.4357ZM22.8276 15.2269C22.8976 12.258 21.042 9.93334 17.52 9.67427C16.9248 9.63225 16.9878 8.72898 17.583 8.771C21.6442 9.06508 23.8079 11.8589 23.7309 15.2479C23.7239 15.8501 22.8136 15.8221 22.8276 15.2269ZM26.1186 16.1652C26.1256 16.7674 25.2153 16.7744 25.2153 16.1722C25.1733 10.4655 21.3711 7.35657 16.7568 7.32156C16.1616 7.31456 16.1616 6.41829 16.7568 6.41829C21.9173 6.4533 26.0696 10.0174 26.1186 16.1652ZM25.3273 23.0343V23.0483C24.5711 24.3787 23.1567 25.8491 21.7002 25.38L21.6862 25.359C20.2088 24.9459 16.7288 23.1533 14.5301 21.4028C13.3958 20.5065 12.3594 19.4492 11.5612 18.4339C10.84 17.5306 10.1118 16.4593 9.40455 15.1709C7.9131 12.4751 7.58401 11.2707 7.58401 11.2707C7.11486 9.81431 8.5783 8.39988 9.91571 7.64366H9.92971C10.5739 7.30756 11.1901 7.41959 11.6032 7.91674C11.6032 7.91674 12.4715 8.95305 12.8426 9.4642C13.1927 9.94035 13.6618 10.7036 13.9069 11.1307C14.334 11.8939 14.068 12.6712 13.6478 12.9933L12.8076 13.6655C12.3804 14.0086 12.4365 14.6458 12.4365 14.6458C12.4365 14.6458 13.6828 19.3582 18.3392 20.5485C18.3392 20.5485 18.9764 20.6045 19.3195 20.1774L19.9917 19.3372C20.3138 18.917 21.0911 18.651 21.8543 19.0781C22.8836 19.6593 24.193 20.5625 25.0613 21.3818C25.5514 21.7809 25.6634 22.3901 25.3273 23.0343Z" fill="currentColor"/>
</svg>
