<svg width="34" height="35" viewBox="0 0 34 35" fill="none" xmlns="http://www.w3.org/2000/svg">
<path d="M28.9076 5.86826C25.7277 2.68076 21.4929 0.927637 16.9924 0.927637C7.70312 0.927637 0.144196 8.48657 0.144196 17.7759C0.144196 20.7433 0.918304 23.6424 2.39062 26.2L0 34.9276L8.93259 32.5825C11.3915 33.9259 14.1616 34.6317 16.9848 34.6317H16.9924C26.2741 34.6317 34 27.0727 34 17.7834C34 13.283 32.0875 9.05576 28.9076 5.86826ZM16.9924 31.7933C14.4728 31.7933 12.0062 31.1178 9.85848 29.8428L9.35 29.5392L4.05268 30.9281L5.46429 25.7598L5.13036 25.2285C3.72634 22.9973 2.99018 20.4245 2.99018 17.7759C2.99018 10.0575 9.27411 3.77362 17 3.77362C20.7415 3.77362 24.2554 5.23076 26.8964 7.87942C29.5375 10.5281 31.1616 14.0419 31.154 17.7834C31.154 25.5093 24.7107 31.7933 16.9924 31.7933ZM24.6728 21.3049C24.2554 21.0924 22.1835 20.0754 21.7964 19.9388C21.4094 19.7946 21.1286 19.7263 20.8478 20.1513C20.567 20.5763 19.7625 21.5174 19.5121 21.8058C19.2692 22.0866 19.0188 22.1245 18.6013 21.912C16.1272 20.675 14.5031 19.7035 12.8714 16.9031C12.4388 16.1593 13.304 16.2125 14.1085 14.6035C14.2451 14.3227 14.1768 14.0799 14.0705 13.8674C13.9643 13.6549 13.1219 11.583 12.7728 10.7406C12.4313 9.92094 12.0821 10.0348 11.8241 10.0196C11.5813 10.0044 11.3004 10.0044 11.0196 10.0044C10.7388 10.0044 10.2835 10.1107 9.89643 10.5281C9.50937 10.9531 8.42411 11.97 8.42411 14.0419C8.42411 16.1138 9.93438 18.1174 10.1393 18.3982C10.3518 18.679 13.1067 22.929 17.3339 24.758C20.0054 25.9116 21.0527 26.0102 22.3884 25.8129C23.2004 25.6915 24.8777 24.7959 25.2268 23.8093C25.5759 22.8227 25.5759 21.9803 25.4696 21.8058C25.371 21.616 25.0902 21.5098 24.6728 21.3049Z" fill="#591214"/>
</svg>
